# xmcd
#
# Track frame offsets: 
#        182
#        21767
#        37805
#        52895
#        65895
#        81897
#        99550
#        114387
#        130510
#        144280
#        161810
#        175357
#        190920
#        204220
#        220492
#        236295
#        252342
#        266720
#        291682
#        308867
#
# Disc length: 4321 seconds
#
# Revision: 6
# Processed by: cddbd v1.5.2PL0 Copyright (c) Steve Scherf et al.
# Submitted via: ExactAudioCopy v0.95b4
#
DISCID=2310df14
DTITLE=Various Artist - Nightfever CD1
DYEAR=1995
DGENRE=Disco
TTITLE0=Earth Wind and Fire - Boogie Wonderland
TTITLE1=Chic - Le Freak
TTITLE2=Sister Sledge - Lost In Music
TTITLE3=O'Jays - Love Train
TTITLE4=Heatwave - Boogie Nights
TTITLE5=Labelle - Lady Marmalade
TTITLE6=Rose Royce - Car Wash
TTITLE7=Kool and the Gang - Celebration
TTITLE8=K.C. and The Sunshine Band - That's The Way I Like It
TTITLE9=Isley Brothers - Harvest For The World
TTITLE10=Billy Ocean - Love Really Hurts Without You
TTITLE11=The Real Thing  - You To Me Are Everything
TTITLE12=Three Degrees - When Will I See You Again
TTITLE13=A Taste Of Honey - Boogie Oogie Oogie
TTITLE14=Tavares - Heaven Must Be Missing An Angel
TTITLE15=Evelyn "Champagne" King - Love Come Down
TTITLE16=Gladys Knight and The Pips - Baby Don't Change Your Mind
TTITLE17=George McCrae - Rock Your Baby
TTITLE18=Candi Staton - Young Hearts Run Free
TTITLE19=Barry White - You're The First, The Last, My Everything
EXTD=
EXTT0=EARTH WIND and FIRE
EXTT1=CHIC
EXTT2=SISTER SLEDGE
EXTT3=O'JAYS
EXTT4=HEATWAVE
EXTT5=LABELLE
EXTT6=ROSE ROYCE
EXTT7=KOOL and THE GANG
EXTT8=KC and THE SUNSHINE BAND
EXTT9=ISLEY BROTHERS
EXTT10=BILLY OCEAN
EXTT11=THE REAL THING
EXTT12=THREE DEGREES
EXTT13=TASTE OF HONE
EXTT14=TAVARES
EXTT15=EVELYN CHAMPAGNE KING
EXTT16=GLADYS KNIGHT and THE PIPS
EXTT17=GEORGE MCCRAE
EXTT18=CANDI STATON
EXTT19=BARRY WHITE
PLAYORDER=
